<svg width="12.999817" height="16.000061" viewBox="0 0 12.9998 16.0001" fill="none" xmlns="http://www.w3.org/2000/svg" xmlns:xlink="http://www.w3.org/1999/xlink">
	<desc>
			Created with Pixso.
	</desc>
	<defs/>
	<path id="Vector" d="M9.68 0C9.64 -0.03 8.42 0.02 7.35 1.17C6.29 2.33 6.45 3.66 6.47 3.69C6.5 3.72 7.99 3.78 8.95 2.43C9.9 1.09 9.71 0.04 9.68 0ZM12.99 11.74C12.94 11.64 10.67 10.5 10.88 8.31C11.09 6.13 12.55 5.53 12.58 5.46C12.6 5.4 11.98 4.67 11.32 4.3C10.84 4.04 10.31 3.9 9.76 3.87C9.65 3.87 9.28 3.77 8.5 3.98C8 4.12 6.85 4.57 6.54 4.59C6.22 4.61 5.28 4.07 4.27 3.93C3.62 3.8 2.94 4.06 2.45 4.26C1.96 4.45 1.02 5.01 0.37 6.49C-0.28 7.97 0.06 10.32 0.3 11.05C0.55 11.78 0.93 12.98 1.58 13.85C2.15 14.83 2.92 15.52 3.24 15.75C3.56 15.98 4.46 16.13 5.08 15.81C5.58 15.51 6.49 15.33 6.85 15.34C7.2 15.36 7.91 15.5 8.63 15.88C9.2 16.08 9.74 16 10.28 15.78C10.82 15.56 11.6 14.72 12.52 13.02C12.86 12.23 13.02 11.8 12.99 11.74Z" fill="#797A7A" fill-opacity="1.000000" fill-rule="nonzero"/>
</svg>
