<svg width="25" height="17" viewBox="0 0 25 17" fill="none" xmlns="http://www.w3.org/2000/svg">
<path fill-rule="evenodd" clip-rule="evenodd" d="M12.8383 3.50448C14.2882 1.54367 15.8912 1.26e-05 17.9411 1.26e-05C21.8111 1.26e-05 24.9984 4.92627 25 10.7915C25 14.3694 23.4595 16.6115 20.6925 16.6115C18.2817 16.6115 16.9505 15.2584 14.5616 11.2618L13.5195 9.50723L13.3351 9.19944C13.0633 8.74013 12.7873 8.28337 12.507 7.82921L10.6665 11.079C8.05262 15.649 6.58084 16.6115 4.53722 16.6115C1.69677 16.6115 0 14.4007 0 10.8946C0 5.29343 3.11699 1.26e-05 7.18393 1.26e-05C7.68077 -0.001029 8.16199 0.0625086 8.62759 0.190626C9.11193 0.324992 9.58221 0.534354 10.0541 0.826523C10.9556 1.38743 11.8571 2.25612 12.8383 3.50448ZM15.2069 6.97926C14.8131 6.33972 14.4345 5.74965 14.071 5.20906L14.0616 5.19656C15.3819 3.15763 16.4724 2.14363 17.7676 2.14363C20.4597 2.14363 22.6142 6.10744 22.6142 10.9759C22.6142 12.832 22.0049 13.9085 20.7471 13.9085C19.5394 13.9085 18.9629 13.1117 16.6693 9.42442L15.2069 6.97926ZM7.5714 2.74359C8.70414 2.89983 9.73533 3.73415 11.2274 5.86996C10.3665 7.18827 9.51495 8.5127 8.6729 9.84315C6.55272 13.1648 5.81995 13.9101 4.64034 13.9101C3.42635 13.9101 2.70296 12.8445 2.70296 10.9415C2.70296 6.87614 4.73095 2.71703 7.14955 2.71703C7.29121 2.71703 7.43183 2.72484 7.5714 2.74359Z" fill="#C9C9C9"/>
</svg>
