<svg width="70" height="57" viewBox="0 0 70 57" fill="none" xmlns="http://www.w3.org/2000/svg">
<path d="M21.9888 56.878C48.405 56.878 62.8556 34.9899 62.8556 16.0418C62.8615 15.4264 62.8527 14.8109 62.8294 14.1955C65.6418 12.1579 68.0698 9.63657 70 6.74928C67.3711 7.90547 64.5866 8.66905 61.7356 9.01553C64.7395 7.2205 66.9891 4.39559 68.0662 1.06616C65.2456 2.74056 62.1565 3.91433 58.9356 4.53553C56.7708 2.23001 53.9061 0.702672 50.7854 0.190096C47.6646 -0.32248 44.4619 0.208314 41.6734 1.70026C38.8848 3.1922 36.666 5.56203 35.3607 8.44267C34.0554 11.3233 33.7364 14.554 34.4531 17.6343C28.7423 17.3493 23.1553 15.8664 18.0549 13.2819C12.9544 10.6974 8.45457 7.069 4.8475 2.63241C3.01692 5.79615 2.45853 9.53784 3.28566 13.0982C4.11278 16.6586 6.26345 19.7709 9.30125 21.8037C7.02366 21.7301 4.79585 21.1184 2.8 20.0187V20.2155C2.80557 23.5291 3.95421 26.7392 6.05204 29.3041C8.14987 31.869 11.0684 33.6316 14.315 34.2943C13.0824 34.634 11.8091 34.8033 10.5306 34.7974C9.62902 34.8068 8.72885 34.7232 7.84438 34.548C8.76047 37.4018 10.5471 39.8971 12.9537 41.6838C15.3602 43.4704 18.2657 44.4587 21.2625 44.5099C16.1705 48.5042 9.8842 50.672 3.4125 50.6655C2.27193 50.6741 1.13201 50.6084 0 50.4687C6.56872 54.6576 14.198 56.8814 21.9888 56.878Z" fill="#1DA1F2"/>
</svg>
